<svg width="158" height="32" viewBox="0 0 158 32" fill="none" xmlns="http://www.w3.org/2000/svg">
<path d="M41.9361 7.7505H47.8648L44.544 23.5009C43.9343 26.484 42.771 28.1914 41.0074 29.4015C39.2236 30.4366 37.1753 30.9258 35.1163 30.8086C31.1951 30.8086 27.4333 29.167 27.0581 25.1801H33.0243C33.2119 26.1182 34.075 26.6529 35.3883 26.6529C37.1613 26.6529 37.9774 25.5835 38.3433 23.9043L38.6997 22.1688H38.5684C38.0449 22.7443 37.4099 23.2073 36.702 23.5298C35.994 23.8523 35.228 24.0276 34.4502 24.045C30.9981 24.045 28.2588 21.2964 28.3151 17.272C28.3902 12.5816 31.4483 7.2533 36.5797 7.2533C37.5521 7.1878 38.5229 7.4021 39.3774 7.8709C40.2319 8.3396 40.9342 9.0433 41.4014 9.8987H41.5046L41.9361 7.7505ZM36.8423 19.6454C39.1219 19.6454 40.3883 17.0188 40.4258 14.758C40.4258 13.2477 39.8348 11.6998 38.09 11.6998C35.7072 11.6998 34.4971 14.3546 34.4596 16.6341C34.4596 18.1726 35.0506 19.6454 36.7954 19.6454M103.4 20.152C103.4 21.1557 102.536 21.5591 101.401 21.5591C99.525 21.5591 98.8967 20.621 98.8873 19.3077H92.9868C92.8836 24.2045 97.2551 25.4146 101.139 25.4146C106.101 25.4146 109.319 23.2664 109.385 18.9794C109.385 15.5553 106.467 14.5141 103.597 13.848C101.392 13.3415 100.426 12.9756 100.435 12.1407C100.445 11.3058 101.43 10.9681 102.396 10.9681C103.606 10.9681 104.431 11.3996 104.516 12.5066H110.248C110.182 8.4165 106.495 7.2158 102.743 7.2158C98.1838 7.2158 94.6284 9.2889 94.5721 13.2101C94.5721 16.2964 96.6547 17.4315 99.797 18.2383C101.814 18.773 103.418 18.9418 103.4 20.152ZM147.236 10.2927H147.133C146.878 9.3689 146.314 8.5602 145.536 8.0005C144.758 7.4409 143.812 7.164 142.855 7.2158C140.304 7.2158 138.747 8.4822 137.274 10.3959H137.171L137.715 7.7505H131.748L128.174 24.8424H134.413L136.289 15.621C136.72 13.6135 137.743 12.2064 139.291 12.2064C140.839 12.2064 141.045 13.4446 140.726 14.955L138.662 24.8424H144.9L146.777 15.621C147.208 13.4822 148.231 12.2064 149.778 12.2064C151.326 12.2064 151.533 13.379 151.214 14.955L149.15 24.8424H155.388L157.621 14.6829C158.559 10.3959 157.124 7.1782 153.006 7.1782C151.86 7.1735 150.732 7.4561 149.724 8.0002C148.716 8.5443 147.861 9.3325 147.236 10.2927ZM0.144409 24.8424H6.58906L11.5703 0.874298H5.13503L0.144409 24.8424ZM19.544 7.2439C23.8967 7.2439 28.0525 9.6266 27.9868 15.0206C27.9305 20.9212 23.9155 25.3396 17.7804 25.3396C13.559 25.3396 9.3377 22.9944 9.4127 17.6285C9.5159 11.8687 13.4746 7.2439 19.544 7.2439ZM17.9587 21.1557C20.7073 21.1557 21.711 17.1688 21.711 14.8236C21.711 13.1445 21.1951 11.5028 19.3845 11.5028C16.6641 11.5028 15.7354 15.7242 15.7354 17.9006C15.7354 19.6454 16.2232 21.1557 17.9962 21.1557M13.7185 0.874298L12.7804 5.66792H66.8986L67.8367 0.874298H13.7185ZM57.2457 7.2439C61.5984 7.2439 65.7541 9.6266 65.6885 15.0206C65.6322 20.9212 61.6078 25.3396 55.4727 25.3396C51.2513 25.3396 47.0299 22.9944 47.1144 17.6285C47.2457 11.8687 51.2044 7.2439 57.2457 7.2439ZM55.6885 21.1557C58.4371 21.1557 59.4408 17.1688 59.4408 14.8236C59.4408 13.1445 58.9155 11.5028 57.105 11.5028C54.3939 11.5028 53.4558 15.7242 53.4558 17.9006C53.4558 19.6454 53.9436 21.1557 55.726 21.1557M70.0506 0.874298L69.1125 5.66792H75.3414L76.2795 0.874298H70.0506ZM65.06 24.8424H71.2982L74.8723 7.7505H68.5965L65.06 24.8424ZM84.9661 25.4146C83.9733 25.4851 82.9804 25.2776 82.0988 24.8153C81.2173 24.353 80.482 23.6542 79.9755 22.7974H79.8723L77.9962 31.4465H71.6828L76.7485 7.7505H82.6772L82.2082 10.03C82.8273 9.188 83.6293 8.4973 84.5538 8.0098C85.4783 7.5224 86.5013 7.2509 87.5459 7.2158C91.2982 7.2158 93.5027 10.4334 93.4371 14.6173C93.3526 19.8799 90.6228 25.4146 84.9286 25.4146H84.9661ZM84.7222 12.0563C82.3114 12.0563 80.8292 15.1426 80.7917 17.516C80.7917 19.167 81.3733 21.0056 83.3526 21.0056C85.9324 21.0056 86.9924 17.591 87.0205 15.3114C87.0205 13.7636 86.5703 12.0563 84.7222 12.0563ZM120.792 22.1501H120.895L120.351 24.8612H126.279L129.854 7.7692H123.625L121.636 17.3189C121.233 19.2983 120.013 20.3396 118.475 20.3396C116.936 20.3396 116.598 18.8949 116.908 17.3846L118.925 7.7692H112.696L110.491 18.3227C109.553 22.9193 111.692 25.3959 115.276 25.3959C116.401 25.3849 117.504 25.0774 118.472 24.5042C119.44 23.931 120.241 23.1125 120.792 22.1313V22.1501ZM154.253 31.531L155.191 26.7373H81.2138L80.2757 31.531H154.253Z" fill="white"/>
</svg>
